HIERARCHY
ROOT Hips
{
	OFFSET	0.00	0.00	0.00
	CHANNELS 6 Xposition Yposition Zposition Zrotation Xrotation Yrotation
	JOINT Spine
	{
		OFFSET	 0.00	0.01	 0.00
		CHANNELS 3 Zrotation Xrotation Yrotation
		JOINT Spine1
		{
			OFFSET	 0.00	 2.45913012437421	 0.00
			CHANNELS 3 Zrotation Xrotation Yrotation
            JOINT Neck
            {
                OFFSET	 0.00	 2.48462964506057	 0.00
                CHANNELS 3 Zrotation Xrotation Yrotation
                JOINT Head
                {
                    OFFSET	 0.00	 0.927524780924562	 0.00
                    CHANNELS 3 Zrotation Xrotation Yrotation
                    End Site 
                    {
                        OFFSET	 0.00	 1.14999962169752	 0.00
                    }
                }
            }
			JOINT LeftShoulder
			{
				OFFSET	 0.00	 2.48462964506057	 0.00
				CHANNELS 3 Zrotation Xrotation Yrotation
				JOINT LeftUpArm
				{
					OFFSET	 0.00	 1.24881979654096	 0.00
					CHANNELS 3 Zrotation Xrotation Yrotation
					JOINT LeftForeArm
					{
						OFFSET	 0.00	2.59758046908119	 0.00
						CHANNELS 3 Zrotation Xrotation Yrotation
						JOINT LeftHand
						{
							OFFSET	 0.00	2.45542024364365	 0.00
							CHANNELS 3 Zrotation Xrotation Yrotation
							JOINT LeftHandThumb 
							{
								OFFSET	 0.00	0.00	 0.00
								CHANNELS 3 Zrotation Xrotation Yrotation
								End Site
								{
									OFFSET	 0.00	0.00	1.00000003353624
								}
							}
							JOINT L_Wrist_End 
							{
								OFFSET	 0.00	0.99999967115358	 0.00
								CHANNELS 3 Zrotation Xrotation Yrotation
								End Site 
								{
									OFFSET	 0.00	 0.00	 0.00
								}
							}
						}
					}
				}
			}
			JOINT RightShoulder
			{
				OFFSET	 0.00	 2.48462964506057	 0.00
				CHANNELS 3 Zrotation Xrotation Yrotation
				JOINT RightUpArm
				{
					OFFSET	 0.00	 1.24881979654096	 0.00
					CHANNELS 3 Zrotation Xrotation Yrotation
					JOINT RightForeArm
					{
						OFFSET	 0.00	2.59758046908119	 0.00
						CHANNELS 3 Zrotation Xrotation Yrotation
						JOINT RightHand
						{
							OFFSET	 0.00	2.45542024364365	 0.00
							CHANNELS 3 Zrotation Xrotation Yrotation
							JOINT RightHandThumb 
							{
								OFFSET	 0.00	0.00	 0.00
								CHANNELS 3 Zrotation Xrotation Yrotation
								End Site
								{
									OFFSET	 0.00	0.00	1.00000003353624
								}
							}
							JOINT R_Wrist_End 
							{
								OFFSET	 0.00	0.99999967115358	 0.00
								CHANNELS 3 Zrotation Xrotation Yrotation
								End Site 
								{
									OFFSET	 0.00	 0.00	 0.00
								}
							}
						}
					}
				}
			}
		}
	}
	JOINT LeftUpLeg
	{
		OFFSET	 1.2719394002717	 0.00	 0.00
		CHANNELS 3 Zrotation Xrotation Yrotation
		JOINT LeftLowLeg
		{
			OFFSET	 0.00	-4.3429100912261	 0.00
			CHANNELS 3 Zrotation Xrotation Yrotation
			JOINT LeftFoot
			{
				OFFSET	 0.00	-4.48767017425826	 0.00
				CHANNELS 3 Zrotation Xrotation Yrotation
				JOINT LeftToeBase
                {
                    OFFSET	 0.00	0.00	 1.51507020887566
                    CHANNELS 3 Zrotation Xrotation Yrotation
                    End Site 
                    {
                        OFFSET	 0.00	0.00	 0.75000010571191
                    }
                }
			}
		}
	}
	JOINT RightUpLeg
	{
		OFFSET	 -1.2719393604653	 0.00	 0.00
		CHANNELS 3 Zrotation Xrotation Yrotation
		JOINT RightLowLeg
		{
			OFFSET	 0.00	-4.3429100912261	 0.00
			CHANNELS 3 Zrotation Xrotation Yrotation
			JOINT RightFoot
			{
				OFFSET	 0.00	-4.48767017425826	 0.00
				CHANNELS 3 Zrotation Xrotation Yrotation
				JOINT RightToeBase
                {
                    OFFSET	 0.00	0.00	 1.51507020887566
                    CHANNELS 3 Zrotation Xrotation Yrotation
                    End Site 
                    {
                        OFFSET	 0.00	0.00	 0.749999965609858
                    }
                }   
			}
		}
	}
}
MOTION 
Frames:	15 
Frame Time: 0.02 
 4.948880004882812 -4.250700073242188 10.5677001953125 -62.5843 83.0359 74.5988 2.35135 -21.9064 -3.74588 8.09884 31.1741 -0.517093 2.93752 35.2023 -6.89451 16.5182 -64.2481 3.5448 -124.5574 2.22955 -8.24222 -34.9183 -0.850625 35.9216 0.0 27.493 0.0 1.55466 -7.9936 -3.27778 0.0 0.0 0.0 0.0 0.0 0.0 115.1412 -1.19647 3.17175 41.0221 3.20626 -20.9803 0.0 24.2549 0.0 1.06365 -1.77327 8.06414 0.0 0.0 0.0 0.0 0.0 0.0 8.98397 11.5356 12.149 0.0 -0.120884 0.0 -7.68007 5.9978 6.94351 0.0 -9.966829 0.0 7.69289 7.65706 4.14002 0.0 5.72221 0.0 17.6026 9.94851 -23.7418 0.0 -11.98155 0.0 
  4.952369995117188 -4.249620056152343 10.567900390625 -62.3777 83.0477 74.44 2.33931 -21.8988 -3.76087 8.09582 31.2184 -0.539977 2.97159 35.1604 -6.99687 16.3663 -64.2594 3.47797 -124.5797 2.23554 -8.24924 -34.9218 -0.832597 35.9212 0.0 27.5067 0.0 1.55182 -7.99409 -3.3142 0.0 0.0 0.0 0.0 0.0 0.0 115.1168 -1.2131 3.20378 41.0292 3.17861 -21.0078 0.0 24.2701 0.0 1.03183 -1.79569 8.16966 0.0 0.0 0.0 0.0 0.0 0.0 8.95651 11.5357 12.0589 0.0 -0.107277 0.0 -7.65988 5.9943705 6.97827 0.0 -9.96759 0.0 7.6907 7.63464 4.7832 0.0 5.83431 0.0 17.8381 9.6517 -24.3022 0.0 -12.0572605 0.0 
  4.955870056152344 -4.247760009765625 10.567900390625 -62.3884 83.0683 74.4457 2.36952 -21.9153 -3.71319 8.04334 31.2611 -0.544545 2.82797 35.1688 -6.82405 16.3812 -64.253 3.39732 -124.582 2.26294 -8.26565 -34.9215 -0.831835 35.9157 0.0 27.5278 0.0 1.53913 -8.00182 -3.31646 0.0 0.0 0.0 0.0 0.0 0.0 115.1167 -1.2267 3.21703 41.028 3.18872 -21.0299 0.0 24.2246 0.0 1.11447 -1.81725 8.24064 0.0 0.0 0.0 0.0 0.0 0.0 8.91107 11.5151 12.0553 0.0 -0.0929446 0.0 -7.65311 5.9836903 7.00445 0.0 -9.96196 0.0 7.64145 7.64456 4.61109 0.0 5.78574 0.0 17.8041 9.70606 -24.1629 0.0 -12.0765705 0.0 
  4.959840087890625 -4.2462701416015625 10.567900390625 -62.3039 83.1122 74.3988 2.41138 -21.9261 -3.64686 7.89073 31.2897 -0.586255 2.87513 35.1773 -6.83227 16.4594 -64.2321 3.51109 -124.534805 2.24474 -8.30592 -34.9229 -0.812047 35.9357 0.0 27.5512 0.0 1.56536 -8.03131 -3.26948 0.0 0.0 0.0 0.0 0.0 0.0 115.2045 -1.20851 3.22935 40.9908 3.17718 -21.0543 0.0 24.1615 0.0 1.23588 -1.84413 8.2109 0.0 0.0 0.0 0.0 0.0 0.0 8.8514 11.4738 12.0357 0.0 -0.0450824 0.0 -7.61977 5.9788 6.99817 0.0 -9.950541 0.0 7.56427 7.6683 4.29473 0.0 5.7301 0.0 17.7281 9.79191 -23.9243 0.0 -11.94155 0.0 
  4.965849914550781 -4.2449798583984375 10.5668994140625 -62.0492 83.1507 74.191 2.63537 -21.8276 -3.44796 7.44793 31.197 -0.771279 3.04416 35.1745 -6.86828 16.8156 -64.2314 3.94958 -124.412994 1.99197 -8.40996 -34.8628 -0.713935 36.0165 0.0 27.5787 0.0 1.58488 -8.0117 -3.25428 0.0 0.0 0.0 0.0 0.0 0.0 115.495895 -1.11921 3.14055 40.8835 3.19109 -21.0874 0.0 24.1164 0.0 1.24327 -1.83791 8.24105 0.0 0.0 0.0 0.0 0.0 0.0 8.78023 11.4529 11.9907 0.0 0.00695857 0.0 -7.59688 5.94026 7.01427 0.0 -9.96011 0.0 7.49377 7.6901 4.35693 0.0 5.74338 0.0 17.8237 9.67124 -23.9817 0.0 -11.93383 0.0 
  4.97260986328125 -4.24177001953125 10.56739990234375 -61.784 83.2029 74.0558 2.70095 -21.8442 -3.36602 7.24226 31.2624 -0.854254 3.18317 35.1735 -6.9519 16.9711 -64.1727 4.10631 -124.3183 2.0288 -8.42932 -34.8902 -0.680702 36.0111 0.0 27.601 0.0 1.60164 -7.98899 -3.2791 0.0 0.0 0.0 0.0 0.0 0.0 115.6182 -1.12462 3.16782 40.8396 3.2167 -21.0503 0.0 24.0316 0.0 1.32335 -1.90588 8.25154 0.0 0.0 0.0 0.0 0.0 0.0 8.7075 11.3681 11.8886 0.0 0.107627 0.0 -7.5098 5.93674 7.0299 0.0 -9.982309 0.0 7.40673 7.71374 4.25536 0.0 5.71908 0.0 17.8977 9.63982 -23.9736 0.0 -11.95178 0.0 
  4.98031005859375 -4.239249877929687 10.5677001953125 -61.4759 83.2553 73.8478 2.76251 -21.8497 -3.27727 7.07472 31.316 -0.899187 3.27594 35.1798 -6.9995 17.1122 -64.1173 4.17419 -124.260895 2.07937 -8.41597 -34.9071 -0.650862 35.9713 0.0 27.6447 0.0 1.59928 -7.96744 -3.22978 0.0 0.0 0.0 0.0 0.0 0.0 115.695496 -1.15826 3.23626 40.8196 3.20372 -21.0301 0.0 23.9556 0.0 1.26138 -1.89687 8.09837 0.0 0.0 0.0 0.0 0.0 0.0 8.62113 11.3116 11.8332 0.0 0.188594 0.0 -7.44044 5.93622 7.0231 0.0 -9.99714 0.0 7.3259 7.72479 4.50633 0.0 5.75217 0.0 18.0269 9.467199 -24.2312 0.0 -11.8731 0.0 
  4.989620056152344 -4.235559997558593 10.567900390625 -61.1873 83.3124 73.6885 2.88131 -21.8439 -3.14966 6.80768 31.352 -1.00287 3.49222 35.204 -7.16339 17.3297 -64.0794 4.37247 -124.1604 2.08014 -8.46718 -34.927 -0.630643 35.9619 0.0 27.7012 0.0 1.62998 -7.97067 -3.20583 0.0 0.0 0.0 0.0 0.0 0.0 115.8369 -1.11293 3.31656 40.7778 3.13906 -21.0069 0.0 23.8587 0.0 1.30683 -1.91067 8.3373 0.0 0.0 0.0 0.0 0.0 0.0 8.52589 11.2357 11.7505 0.0 0.276152 0.0 -7.37774 5.9223804 7.0154 0.0 -9.99634 0.0 7.21548 7.76873 4.35279 0.0 5.68799 0.0 18.0857 9.45719 -24.1759 0.0 -11.88432 0.0 
  5.000329895019531 -4.231520080566407 10.568299560546874 -60.7747 83.3706 73.4283 2.99615 -21.8576 -3.01721 6.52913 31.4342 -1.11118 3.79205 35.1993 -7.40952 17.5628 -64.0057 4.61141 -124.0019 2.10922 -8.57924 -34.994 -0.666151 35.9869 0.0 27.796 0.0 1.6965 -7.9236 -3.40958 0.0 0.0 0.0 0.0 0.0 0.0 115.9945 -1.0819 3.31808 40.714 3.17831 -20.9607 0.0 23.7402 0.0 1.2389 -1.82877 7.85644 0.0 0.0 0.0 0.0 0.0 0.0 8.41883 11.1553 11.6708 0.0 0.382931 0.0 -7.26487 5.9135 7.01138 0.0 -10.02309 0.0 7.0971 7.8265 4.22096 0.0 5.62626 0.0 18.1536 9.43084 -24.1615 0.0 -11.87057 0.0 
  5.0127099609375 -4.22656005859375 10.568599853515625 -60.3516 83.442 73.228 3.10002 -21.8388 -2.92234 6.22453 31.4798 -1.2698 4.02441 35.1851 -7.58234 17.8276 -63.9632 4.81854 -123.8804 2.09332 -8.62387 -35.0049 -0.646347 35.9574 0.0 27.9195 0.0 1.72675 -7.91417 -3.40754 0.0 0.0 0.0 0.0 0.0 0.0 116.208405 -1.05433 3.32845 40.6092 3.22083 -20.9586 0.0 23.6497 0.0 1.32192 -1.87771 8.02625 0.0 0.0 0.0 0.0 0.0 0.0 8.30611 11.0126 11.5761 0.0 0.563005 0.0 -7.11356 5.8729 6.96742 0.0 -10.02386 0.0 6.96552 7.88135 4.13613 0.0 5.56679 0.0 18.2896 9.356239 -24.2136 0.0 -11.85911 0.0 
  5.026539916992188 -4.221430053710938 10.569000244140625 -59.9856 83.5033 73.0987 3.14753 -21.8469 -2.89158 6.03089 31.5828 -1.40819 4.26657 35.1261 -7.79476 18.0309 -63.8847 4.92333 -123.7787 2.10985 -8.67427 -35.0666 -0.625848 35.9313 0.0 28.0381 0.0 1.71248 -7.95347 -3.26596 0.0 0.0 0.0 0.0 0.0 0.0 116.3532 -1.00682 3.38085 40.5011 3.22789 -20.9278 0.0 23.6088 0.0 1.44805 -1.98842 7.94324 0.0 0.0 0.0 0.0 0.0 0.0 8.1958 10.8688 11.4397 0.0 0.730246 0.0 -6.99254 5.8314695 6.95607 0.0 -10.03532 0.0 6.83747 7.94572 3.93198 0.0 5.47866 0.0 18.3635 9.352079 -24.1989 0.0 -11.864901 0.0 
  5.041960144042969 -4.218049926757812 10.5702001953125 -59.3799 83.5619 72.8097 3.11059 -21.8999 -2.94522 5.91215 31.76 -1.54566 4.55585 35.0695 -8.06243 18.2678 -63.7691 4.93877 -123.658905 2.16327 -8.68399 -35.1571 -0.605558 35.9195 0.0 28.1991 0.0 1.74089 -7.96153 -3.28389 0.0 0.0 0.0 0.0 0.0 0.0 116.4081 -0.980909 3.43726 40.4734 3.28834 -20.9663 0.0 23.4565 0.0 1.40091 -1.9597 8.21042 0.0 0.0 0.0 0.0 0.0 0.0 8.08557 10.7649 11.1805 0.0 0.848008 0.0 -6.84923 5.8338804 6.98473 0.0 -10.04616 0.0 6.70964 8.07084 3.6996 0.0 5.34327 0.0 18.4687 9.34595 -24.2418 0.0 -11.8237095 0.0 
  5.0565798950195315 -4.212900085449219 10.571199951171875 -58.904 83.5962 72.5714 3.08342 -21.8747 -2.97214 5.82621 31.8475 -1.62263 4.9521 35.1018 -8.49009 18.4579 -63.7154 4.95637 -123.637 2.19764 -8.66995 -35.1388 -0.554586 35.9513 0.0 28.3365 0.0 1.70668 -7.80136 -3.58679 0.0 0.0 0.0 0.0 0.0 0.0 116.4651 -0.967296 3.45255 40.4427 3.3442 -21.0541 0.0 23.3454 0.0 0.925872 -1.95011 8.0731 0.0 0.0 0.0 0.0 0.0 0.0 7.99267 10.6673 11.0948 0.0 0.966537 0.0 -6.72453 5.82211 6.90379 0.0 -10.04315 0.0 6.60348 8.11478 3.62174 0.0 5.33468 0.0 18.6149 9.29561 -24.3191 0.0 -11.85321 0.0 
  5.073779907226562 -4.205450134277344 10.57239990234375 -58.3507 83.6402 72.2169 3.11589 -21.8612 -2.90123 5.6334 31.9899 -1.69426 5.41979 35.1675 -8.96818 18.8797 -63.6837 4.92107 -123.5468 2.25955 -8.67537 -35.1308 -0.5026 35.9759 0.0 28.5134 0.0 1.78641 -7.89419 -3.3363 0.0 0.0 0.0 0.0 0.0 0.0 116.5282 -0.910687 3.44918 40.4285 3.44969 -21.2153 0.0 23.2457 0.0 0.734504 -2.24739 8.08074 0.0 0.0 0.0 0.0 0.0 0.0 7.85753 10.5988 11.0468 0.0 1.03704 0.0 -6.56195 5.85058 6.8394 0.0 -10.09175 0.0 6.46651 8.14988 3.47391 0.0 5.32641 0.0 18.7122 9.28289 -24.3425 0.0 -11.85835 0.0 
  5.0914599609375 -4.198080139160156 10.573199462890624 -58.0276 83.6457 72.0421 3.24216 -21.8644 -2.69661 5.35301 32.1442 -1.72613 6.33303 35.1953 -10.001 19.209 -63.5143 4.77264 -123.3935 2.36759 -8.7289 -35.1168 -0.485073 36.0659 0.0 28.6868 0.0 1.83597 -7.87893 -3.02273 0.0 0.0 0.0 0.0 0.0 0.0 116.6249 -0.848977 3.44235 40.4998 3.46287 -21.2218 0.0 23.1827 0.0 0.0266046 -2.29487 8.33408 0.0 0.0 0.0 0.0 0.0 0.0 7.75408 10.5603 10.8885 0.0 1.06261 0.0 -6.4393 5.82983 6.90082 0.0 -10.07439 0.0 6.37106 8.134 3.52045 0.0 5.38846 0.0 18.8234 9.23521 -24.4977 0.0 -11.99586 0.0 
